
<svg xmlns="http://www.w3.org/2000/svg" version="1.1" xmlns:xlink="http://www.w3.org/1999/xlink" preserveAspectRatio="none" x="0px" y="0px" width="450px" height="80px" viewBox="0 0 450 80">
<defs>
<linearGradient id="Gradient_1" gradientUnits="userSpaceOnUse" x1="58.875" y1="18.799999999999997" x2="59.825" y2="54.8" spreadMethod="pad">
<stop  offset="0%" stop-color="#686868"/>

<stop  offset="100%" stop-color="#666666"/>
</linearGradient>

<linearGradient id="Gradient_2" gradientUnits="userSpaceOnUse" x1="121.4125" y1="112.85" x2="122.2875" y2="159.85" spreadMethod="pad">
<stop  offset="0%" stop-color="#FD673D"/>

<stop  offset="100%" stop-color="#FD6042"/>
</linearGradient>

<g id="Layer0_0_FILL">
<path fill="#000000" stroke="none" d="
M 82.1 27.8
L 82.2 27.8 103.3 59.8 107.35 59.8 107.35 23.05 103.9 23.05 103.9 55.15 103.75 55.15 82.55 23.05 78.65 23.05 78.65 59.8 82.1 59.8 82.1 27.8
M 133.4 36.4
Q 130.3 32.65 124.85 32.65 122 32.65 119.75 33.75 117.5 34.85 115.95 36.75 114.4 38.7 113.55 41.25 112.7 43.8 112.7 46.7 112.7 49.6 113.4 52.15 114.1 54.65 115.6 56.5 117.05 58.4 119.35 59.45 120.55 59.95 121.9 60.25
L 124.85 60.5
Q 127.35 60.5 129.25 59.85 131.1 59.2 132.5 58 133.85 56.8 134.8 55.2 135.7 53.55 136.25 51.7
L 132.85 51.7
Q 132.5 53.15 131.75 54.25 131.05 55.4 129.95 56.2 127.85 57.75 124.85 57.75 122.65 57.75 120.95 56.9 119.25 56.05 118.15 54.65 117.05 53.3 116.55 51.35 115.95 49.45 115.95 47.3
L 136.45 47.3
Q 136.5 40.2 133.4 36.4
M 124.85 35.4
Q 126.85 35.4 128.45 36.15 130 36.9 131.05 38.15 132.1 39.4 132.65 41.1 133.2 42.8 133.2 44.75
L 115.95 44.75
Q 116.15 42.85 116.8 41.15 117.5 39.5 118.6 38.25 119.7 36.95 121.25 36.2 122.8 35.4 124.85 35.4
M 173.8 33.4
L 170.7 33.4 163.75 55.7 157.95 33.4 154.55 33.4 148.4 55.9 141.6 33.4 138.5 33.4 146.55 59.8 150.25 59.8 156.1 37.6 156.2 37.6 162 59.8 165.25 59.8 173.8 33.4
M 178.1 23.05
L 174.45 23.05 187.2 59.8 191.05 59.8 203.8 23.05 200.15 23.05 189.15 55.7 178.1 23.05
M 218.15 32.65
Q 215.3 32.65 213.05 33.75 210.8 34.85 209.25 36.75 207.7 38.7 206.85 41.25 206 43.8 206 46.7 206 49.6 206.7 52.15 207.4 54.65 208.9 56.5 210.35 58.4 212.65 59.45 213.85 59.95 215.2 60.25
L 218.15 60.5
Q 220.65 60.5 222.55 59.85 224.4 59.2 225.8 58 227.15 56.8 228.1 55.2 229 53.55 229.55 51.7
L 226.15 51.7
Q 225.8 53.15 225.05 54.25 224.35 55.4 223.25 56.2 221.15 57.75 218.15 57.75 215.95 57.75 214.25 56.9 212.55 56.05 211.45 54.65 210.35 53.3 209.85 51.35 209.25 49.45 209.25 47.3
L 229.75 47.3
Q 229.8 40.2 226.7 36.4 223.6 32.65 218.15 32.65
M 214.55 36.2
Q 216.1 35.4 218.15 35.4 220.15 35.4 221.75 36.15 223.3 36.9 224.35 38.15 225.4 39.4 225.95 41.1 226.5 42.8 226.5 44.75
L 209.25 44.75
Q 209.45 42.85 210.1 41.15 210.8 39.5 211.9 38.25 213 36.95 214.55 36.2
M 265.6 33.4
L 262.55 33.4 262.55 59.8 265.6 59.8 265.6 33.4
M 262.4 23.05
L 262.4 27.65 265.75 27.65 265.75 23.05 262.4 23.05
M 250.85 33.5
Q 248.75 32.65 246.3 32.65 244.9 32.65 243.75 33 242.55 33.3 241.6 33.9 239.6 35.1 237.75 37.05
L 237.75 23.05 234.7 23.05 234.7 59.8 237.75 59.8 237.85 43
Q 238 41.85 238.45 40.6 238.8 39.55 239.45 38.65 240.1 37.7 241.05 37 242 36.3 243.2 35.85 244.35 35.4 245.8 35.4 249.45 35.4 251.05 37.2 251.85 38.1 252.2 39.45 252.6 40.75 252.6 42.55
L 252.6 59.8 255.7 59.8 255.5 39.4
Q 255.35 37.85 254.35 36.45 252.95 34.35 250.85 33.5
M 290.65 34.85
Q 289.25 33.8 287.4 33.2 285.55 32.65 283.25 32.65 280.3 32.65 278 33.85 275.75 34.95 274.2 36.9 272.7 38.85 271.9 41.35 271.1 43.9 271.1 46.65 271.1 49.55 271.8 52.1 272.55 54.65 274 56.5 275.45 58.4 277.8 59.45 278.95 59.95 280.3 60.25
L 283.25 60.5
Q 285.75 60.5 287.7 59.8 289.6 59.1 291 57.8 292.4 56.5 293.3 54.65 294.2 52.9 294.6 50.65
L 291.35 50.65
Q 291.05 52.35 290.4 53.6 289.75 54.9 288.7 55.85 287.7 56.8 286.3 57.3 284.95 57.75 283.25 57.75 280.85 57.75 279.15 56.8 277.45 55.85 276.4 54.3 275.3 52.7 274.85 50.7 274.35 48.75 274.35 46.65 274.35 44.6 274.9 42.6 275.35 40.6 276.45 38.95 277.5 37.35 279.2 36.4 280.9 35.4 283.25 35.4 284.75 35.4 286.05 35.85 287.3 36.25 288.25 37.1 290.25 38.75 291.1 41.7
L 294.2 41.7
Q 293.85 39.4 292.95 37.65 292.05 35.95 290.65 34.85
M 303.25 23.05
L 300.2 23.05 300.2 59.8 303.25 59.8 303.25 23.05
M 342.6 59.8
L 342.6 55.3 338.9 55.3 338.9 59.8 342.6 59.8
M 332.4 47.3
Q 332.45 40.2 329.35 36.4 326.25 32.65 320.8 32.65 317.95 32.65 315.7 33.75 313.45 34.85 311.9 36.75 310.35 38.7 309.5 41.25 308.65 43.8 308.65 46.7 308.65 49.6 309.35 52.15 310.05 54.65 311.55 56.5 313 58.4 315.3 59.45 316.5 59.95 317.85 60.25
L 320.8 60.5
Q 323.3 60.5 325.2 59.85 327.05 59.2 328.45 58 329.8 56.8 330.75 55.2 331.65 53.55 332.2 51.7
L 328.8 51.7
Q 328.45 53.15 327.7 54.25 327 55.4 325.9 56.2 323.8 57.75 320.8 57.75 318.6 57.75 316.9 56.9 315.2 56.05 314.1 54.65 313 53.3 312.5 51.35 311.9 49.45 311.9 47.3
L 332.4 47.3
M 327 38.15
Q 328.05 39.4 328.6 41.1 329.15 42.8 329.15 44.75
L 311.9 44.75
Q 312.1 42.85 312.75 41.15 313.45 39.5 314.55 38.25 315.65 36.95 317.2 36.2 318.75 35.4 320.8 35.4 322.8 35.4 324.4 36.15 325.95 36.9 327 38.15
M 368.8 34.85
Q 367.4 33.8 365.55 33.2 363.7 32.65 361.4 32.65 358.45 32.65 356.15 33.85 353.9 34.95 352.35 36.9 350.85 38.85 350.05 41.35 349.25 43.9 349.25 46.65 349.25 49.55 349.95 52.1 350.7 54.65 352.15 56.5 353.6 58.4 355.95 59.45 357.1 59.95 358.45 60.25
L 361.4 60.5
Q 363.9 60.5 365.85 59.8 367.75 59.1 369.15 57.8 370.55 56.5 371.45 54.65 372.35 52.9 372.75 50.65
L 369.5 50.65
Q 369.2 52.35 368.55 53.6 367.9 54.9 366.85 55.85 365.85 56.8 364.45 57.3 363.1 57.75 361.4 57.75 359 57.75 357.3 56.8 355.6 55.85 354.55 54.3 353.45 52.7 353 50.7 352.5 48.75 352.5 46.65 352.5 44.6 353.05 42.6 353.5 40.6 354.6 38.95 355.65 37.35 357.35 36.4 359.05 35.4 361.4 35.4 362.9 35.4 364.2 35.85 365.45 36.25 366.4 37.1 368.4 38.75 369.25 41.7
L 372.35 41.7
Q 372 39.4 371.1 37.65 370.2 35.95 368.8 34.85
M 383 33.75
Q 380.7 34.85 379.2 36.75 377.65 38.65 376.9 41.15 376.15 43.7 376.15 46.6 376.45 50.95 377.1 52.65 378.1 55.25 379.75 57 381.4 58.75 383.6 59.6 385.85 60.45 388.35 60.5 391.15 60.5 393.4 59.55 395.65 58.55 397.3 56.7 398.9 54.85 399.75 52.3 400.6 49.75 400.6 46.6 400.6 43.7 399.85 41.1 399.15 38.6 397.6 36.7 396.1 34.85 393.75 33.75 392.65 33.2 391.3 32.95
L 388.35 32.65
Q 385.3 32.65 383 33.75
M 379.9 42.45
Q 380.45 40.45 381.5 38.85 382.55 37.3 384.25 36.35 386 35.4 388.35 35.4 390.85 35.4 392.5 36.3 394.2 37.15 395.25 38.65 396.35 40.2 396.85 42.2 397.35 44.25 397.35 46.6 397.35 48.7 396.85 50.7 396.35 52.7 395.25 54.3 394.2 55.85 392.5 56.8 390.8 57.75 388.35 57.75 386.2 57.75 384.5 56.95 382.8 56.15 381.7 54.65 380.6 53.2 380 51.1 379.4 49.05 379.4 46.6 379.4 44.45 379.9 42.45
M 419.25 33.1
Q 417.95 32.65 416.15 32.65 414.85 32.65 413.65 33 412.45 33.3 411.35 33.9 409.15 35.05 407.95 37.35
L 407.9 37.35 407.9 33.4 404.8 33.4 404.8 59.8 407.9 59.8 407.95 43.8 408.2 41.85 408.75 40 409.6 38.45
Q 410.8 36.9 412.35 36.15 413.9 35.4 415.55 35.4 418.85 35.4 420.05 37.05 420.65 37.85 420.9 39 421.25 40.1 421.25 41.55
L 421.25 59.8 424.3 59.8 424.35 43.8 424.65 41.85 425.2 40 426.05 38.45
Q 427.2 36.9 428.75 36.15 430.3 35.4 432 35.4 435.25 35.4 436.45 37.05 437.05 37.85 437.35 39 437.65 40.1 437.65 41.55
L 437.65 59.8 440.7 59.8 440.45 39.25
Q 440.15 37.35 439.3 35.9 438.45 34.45 436.8 33.55 435.2 32.65 432.5 32.65 431.1 32.65 429.8 33 428.55 33.3 427.4 33.95 426.35 34.55 425.45 35.5 424.55 36.45 423.9 37.75
L 422.9 35.75
Q 422.3 34.85 421.4 34.2 420.55 33.5 419.25 33.1 Z"/>
</g>

<g id="Symbol_1_0_Layer0_0_FILL">
<path fill="url(#Gradient_1)" stroke="none" d="
M 119.95 35.4
L 106.25 46.05 41.1 0 0 28 0 88.6 41.1 56.05 106.25 102.9 119.95 92.05 119.95 35.4 Z"/>

<path fill="url(#Gradient_2)" stroke="none" d="
M 163.6 126.45
L 179.05 137.9 179.05 77.3 161.85 64.15 105.05 118.45 63.6 85.45 63.6 144.75 103 171.05 163.6 126.45 Z"/>
</g>
</defs>

<g transform="matrix( 1, 0, 0, 1, 0,0) ">
<use xlink:href="#Layer0_0_FILL"/>
</g>

<g transform="matrix( 0.3504791259765625, 0, 0, 0.35076904296875, 6.95,10) ">
<g transform="matrix( 1, 0, 0, 1, 0,0) ">
<use xlink:href="#Symbol_1_0_Layer0_0_FILL"/>
</g>
</g>
</svg>
