<svg xmlns="http://www.w3.org/2000/svg" viewBox="123 219.9 841.9 403" enable-background="new 123 219.9 841.9 403"><path fill="#64BC46" d="M182.3 387.3c1.7-18.7 13-36.5 28-47.3 28.5-20.7 63-14.3 95.7-18 22.2-2.5 45.2-7.9 64-20.4 9.3-6.2 18.2-12.9 27.7-19 29.8-19 61.1-36 96.9-38.2 44.3-2.8 91.4-1.2 134 12.5 32.3 10.4 60.4 30.4 90.5 45.4 35.9 17.9 72.7 29.9 112.3 35.7 33.8 5 71.7 12.9 99.6 33.6 5.9 4.4 11.3 9.5 15.3 15.7-4.7-17.8-20.8-32.2-35.8-41.6-29.1-18.3-61-20.6-93.3-27.8-37.1-8.2-72.5-23.5-104.6-43.5-38.2-23.8-81.1-42.1-125.6-49.5-35-5.8-74.5-4.8-109.6.2-39 5.6-70.8 26.6-103.1 48-11.1 7.4-20.6 15.2-33.1 20-20 7.8-43.6 12.2-65.1 11.4-19.2-.8-40 3.7-56.8 13-26 14.2-37.7 40.9-37 69.8z"/><path fill="#fff" d="M231.2 446.3c-.9-5-3-6.5-8-6.5h-5.3l5.8-32.8h24.5c14.8 0 19.4 3.8 21.8 17.1L289.4 541c2 11.8 2.6 30.7 2.6 30.7h.6s7.2-18.9 13.4-30.7l60.8-116.9c7.1-13.3 12.8-17.1 27.5-17.1H419l-5.8 32.8h-5.6c-5 0-7.6 1.5-10.3 6.5l-92.6 170.3H264l-32.8-170.3zM462.7 462.5c43.1 0 61.1 31.6 54.1 71.4-.8 4.4-3.3 13.9-3.3 13.9H409.6c-1.7 26.6 15.3 40.4 38 40.4 24.2 0 45.2-16.8 45.2-16.8l11.1 26s-27 22.7-64.5 22.7c-49.9 0-74.5-36-67-78.8 8.1-46.3 45.1-78.8 90.3-78.8zm17.9 59.3c2.6-18-7.6-30.4-23-30.4-19.2 0-34.8 11.5-42.3 30.4h65.3zM552.3 504.4c.8-4.4-1.2-6.5-5.4-6.5h-11.8l5.6-31.9h34.5c13.3 0 18.7 6.2 16.8 16.8l-.8 4.4c-.6 3.2-1.7 6.5-1.7 6.5h.6c8.7-12.7 28.2-31.3 58.6-31.3 33.4 0 49.5 17.4 42.4 57.3l-10.4 58.7c-.7 4.1 1.2 6.5 5.3 6.5h11.8l-5.6 31.6h-35.7c-14.2 0-19-5.9-16.5-20.1l12.2-69.1c3.2-18.3.7-30.7-18.2-30.7-20.1 0-37.4 12.7-45.8 30.7-3.2 6.2-5.2 13-6.5 20.1l-12.2 69.1h-37.2l20-112.1zM794.9 462.5c32.8 0 40.2 18.3 40.2 18.3h.6s.4-3.8 1.3-8.9l4.7-26.6c.8-4.4-1.2-6.5-5.3-6.5h-11.8l5.6-31.9h35.7c13.9 0 19 6.2 16.5 20.1l-26.7 151.4c-.7 4.1 1.2 6.5 5.3 6.5h11.5l-5.6 31.6h-34.5c-13.6 0-17.5-6.5-15.9-15.3.6-3.2 1-5.6 1-5.6h-.6s-16.7 24.5-51.3 24.5c-40.7 0-61.3-32.2-53.1-78.8 8.5-47.8 42.6-78.8 82.4-78.8zm30.7 78.5c4.1-23.3-3.9-46.3-29-46.3-20.7 0-40.7 16.8-46 46.6-5 28.6 6.7 47.2 28.9 47.2 19.5 0 40.3-14.1 46.1-47.5zM949.5 484.6c1.8-12.8-3.1-18.5-16.5-18.5h-35.7l-5.6 31.9h11.8c4.1 0 6.1 2.1 5.3 6.5l-16.2 92.1c-2.5 14.2 2.4 20.1 16.2 20.1h17.4l23.3-132.1z"/><path fill="#BCBEC0" d="M960.3 407h-32.5l-6.1 34.5h32.5z"/><path fill="#64BC46" d="M149.3 484.6c2.7-12.8 9.7-18.5 23-18.5H208l-5.6 31.9h-11.8c-4.1 0-6.9 2.1-7.6 6.5l-16.2 92.1c-2.5 14.2-9.4 20.1-23.3 20.1H126l23.3-132.1z"/><path fill="#BCBEC0" d="M165.9 407h32.4l-6.1 34.5h-32.4z"/></svg>